<svg xmlns="http://www.w3.org/2000/svg" fill="none" viewBox="0 0 394 80">
  <path d="M262 0h68.5v12.7h-27.2v66.6h-13.6V12.7H262V0ZM149.6 0v12.7H94v20.4h44.3v12.6H94v21h55.5v12.6H80.5V0h69.1Zm34.3 0h-17.8l63.8 79.4h17.9l-32-39.7 32-39.6h-17.9l-23 28.6-23-28.6Zm18.3 56.7-9-11-27.1 33.7h17.8l18.3-22.7Z" fill="#000"/>
  <path d="M81 79.3 17 0H0v79.3h13.6V17l50.2 62.3H81Zm252.6-.4c-1 0-1.8-.2-2.5-.7a4.4 4.4 0 0 1-1.7-1.9 6.1 6.1 0 0 1-.6-2.6V5.2c0-1 .2-1.8.6-2.6a4.4 4.4 0 0 1 1.7-1.9c.7-.5 1.5-.7 2.5-.7s1.8.2 2.5.7c.7.5 1.2 1.1 1.7 1.9.4.8.6 1.6.6 2.6v69.5c0 1-.2 1.8-.6 2.6a4.4 4.4 0 0 1-1.7 1.9c-.7.5-1.5.7-2.5.7Z" fill="#000"/>
</svg>
